<?xml version="1.0" encoding="utf-8"?>
<!DOCTYPE svg PUBLIC "-//W3C//DTD SVG 1.1//EN" "http://www.w3.org/Graphics/SVG/1.1/DTD/svg11.dtd">
<svg width="200px" height="200px" viewBox="0, 0, 200, 200" id="svgWaterBox" xmlns="http://www.w3.org/2000/svg" xmlns:xlink="http://www.w3.org/1999/xlink" xmlns:xml="http://www.w3.org/XML/1998/namespace" version="1.1">
  <g class="waveShape">
    <path d="M172.611 144 C164.911 144 161.054 146.534 152.734 146.534 C144.555 146.534 145.039 144.023 137.343 144.023 C129.647 144.023 125.695 146.534 119.108 146.534 C110.93 146.534 111.413 144.023 103.717 144.023 C96.02099 144.023 94.33398 146.511 87.46999 146.511 C79.29198 146.511 79.77499 144 72.07899 144 C64.38299 144 60.52199 146.534 52.20199 146.534 C44.02499 146.534 44.50699 144.023 36.81099 144.023 C29.11499 144.023 25.16399 146.534 18.57599 146.534 C10.39899 146.534 10.88299 144.023 3.184989 144.023 C-4.513011 144.023 -7.425 145.568 -12 146.534 L-12 344 L188 344 L188 146.511 C179.9 146.032 180.309 144 172.611 144 z" transform="translate(12, -144) translate(0, 64.4583)" id="Path_1790" data-name="Path 1790" style="fill:#0A7DBA;" />
  </g>
</svg>